<svg width="24" height="24" viewBox="0 0 24 24" fill="none" xmlns="http://www.w3.org/2000/svg">
<path d="M10.3406 5.10526C10.9526 3.28002 12.9528 2.30468 14.8084 2.92655C16.1829 3.38739 17.0927 4.59517 17.2234 5.93241C17.5126 7.71263 16.4788 9.07899 17.2195 10.1902C18.0967 11.506 19.9198 11.3697 21.4109 12.8377C21.8925 13.2895 22.2384 13.8667 22.409 14.5047C22.5831 15.156 22.5613 15.8442 22.3465 16.4832C21.826 18.0354 20.3013 18.9736 18.7156 18.8367C17.0421 18.875 16.0075 17.9381 14.6638 18.3963C13.1526 18.9116 13.2815 20.6651 11.7566 21.9598C10.8416 22.8423 9.46492 23.1951 8.15993 22.7576C6.30426 22.1354 5.29597 20.1504 5.90798 18.325C6.35262 16.9993 7.5302 16.1216 8.85232 15.9793C10.9269 15.7067 12.2996 16.9154 13.7927 16.3943C14.6537 16.0935 15.0722 15.3242 15.4275 14.2644C15.6917 13.1265 15.9456 12.1907 15.3172 11.2625C14.5213 10.0869 13.1312 10.211 11.8191 9.17167C10.4712 8.32497 9.8202 6.65751 10.3406 5.10526ZM18.6218 12.7996C18.5572 12.7997 18.4947 12.8261 18.449 12.8719C18.4034 12.9177 18.3777 12.98 18.3777 13.0447V13.1482C17.8465 13.2434 17.4002 13.6424 17.4002 14.1853C17.4002 14.7282 17.8465 15.1273 18.3777 15.2224V16.3533C18.0729 16.2702 17.8887 16.0361 17.8884 15.8152C17.8884 15.7505 17.8629 15.6882 17.8172 15.6424C17.7713 15.5965 17.7091 15.5701 17.6443 15.5701C17.5795 15.5701 17.5173 15.5966 17.4715 15.6424C17.4258 15.6882 17.4002 15.7505 17.4002 15.8152C17.4004 16.358 17.8466 16.7572 18.3777 16.8523V16.9558C18.3778 17.0206 18.4032 17.0829 18.449 17.1287C18.4947 17.1745 18.5572 17.1999 18.6218 17.2C18.6865 17.2 18.7489 17.1743 18.7947 17.1287C18.8405 17.0829 18.8669 17.0206 18.867 16.9558V16.8523C19.398 16.7571 19.8443 16.3579 19.8445 15.8152C19.8445 15.2723 19.3981 14.8724 18.867 14.7771V13.6463C19.1719 13.7298 19.3552 13.9644 19.3552 14.1853C19.3553 14.2501 19.3817 14.3124 19.4275 14.3582C19.4733 14.4039 19.5357 14.4295 19.6004 14.4295C19.6651 14.4294 19.7275 14.4039 19.7732 14.3582C19.819 14.3124 19.8445 14.2501 19.8445 14.1853C19.8445 13.6425 19.3981 13.2435 18.867 13.1482V13.0447C18.867 12.9799 18.8405 12.9177 18.7947 12.8719C18.7489 12.8261 18.6867 12.7996 18.6218 12.7996ZM18.867 15.2762C19.1719 15.3593 19.3552 15.5943 19.3552 15.8152C19.355 16.036 19.1717 16.2702 18.867 16.3533V15.2762ZM18.3777 14.7234C18.0728 14.6403 17.8885 14.4062 17.8884 14.1853C17.8884 13.9644 18.0727 13.7297 18.3777 13.6463V14.7234Z" fill="black"/>
<circle opacity="0.5" cx="4" cy="4" r="3" fill="black"/>
</svg>
